<svg width="80" height="80" viewBox="0 0 80 80" fill="none" xmlns="http://www.w3.org/2000/svg">
<path fill-rule="evenodd" clip-rule="evenodd" d="M0.0122859 3.04514V6.09029L12.0229 6.09968C18.6287 6.10482 24.6431 6.12953 25.3883 6.15471L26.7433 6.20034L25.2412 7.56105C24.4151 8.30943 22.5473 9.97809 21.0906 11.2692C15.9367 15.8373 2.16742 28.0093 1.09136 28.9484L0 29.9011L0.0506165 32.8729C0.0785001 34.5074 0.106091 35.8493 0.111976 35.855C0.117862 35.8606 8.20905 35.8898 18.0925 35.9194L36.0624 35.9734V32.8455V29.7176H22.7459C15.4219 29.7176 9.42945 29.6913 9.42945 29.6588C9.42945 29.5963 9.88996 29.1873 20.4284 19.8855C29.023 12.2996 35.6962 6.39862 35.8533 6.24568C35.9614 6.14055 35.9816 5.77682 36.0281 3.06349L36.0806 0H18.0465H0.0122859V3.04514ZM44.0817 17.9773V35.8813H47.5027H50.924V31.1155V26.3499L52.046 25.3699C53.5722 24.0368 56.2976 21.7045 56.9401 21.1817L57.4658 20.7538L58.3401 21.6587C59.3234 22.6762 63.9416 27.6689 68.4706 32.6112L71.4871 35.9025L73.0689 35.8553C73.939 35.8295 75.8329 35.8083 77.2777 35.8081L79.9044 35.8078L79.9515 35.5576C79.9776 35.4196 79.9765 35.237 79.9492 35.1517C79.8193 34.7429 78.4513 33.2119 71.1921 25.3483C62.0726 15.47 62.6721 16.1341 62.7807 16.0325C62.9055 15.9161 72.2508 7.79073 76.6633 3.96243L80 1.06727L79.9067 0.194816C79.9067 0.194816 77.8383 0.148295 75.3498 0.126208L70.825 0.0860712L66.6315 3.81148C64.3251 5.86047 59.8721 9.81693 56.7362 12.6037L51.0343 17.6705L50.9898 10.2477C50.9654 6.16526 50.9404 2.20593 50.9348 1.44919L50.924 0.073377H47.5027H44.0817V17.9773ZM0.0122859 61.8567V79.8341H18.0373H36.0624V61.8567V43.8793H18.0373H0.0122859V61.8567ZM57.6582 44.0995C53.5844 44.5984 51.1237 45.3566 49.0111 46.7641C46.8088 48.231 45.7731 49.6449 45.0987 52.1052C44.9461 52.6618 44.9308 52.8633 44.9421 54.1888C44.9566 55.9316 45.0502 56.5334 45.4752 57.6178C45.8797 58.649 46.3333 59.3162 47.2184 60.1809C48.6743 61.6025 50.6967 62.618 53.3887 63.2786C54.9691 63.6662 55.4899 63.7428 62.1804 64.5713C68.5421 65.3594 69.8692 65.6062 71.2584 66.2609C73.3549 67.2489 73.9186 69.9649 72.3799 71.6645C71.3569 72.7943 69.5835 73.3696 65.9325 73.7563C65.3268 73.8205 64.0085 73.8536 62.0701 73.8533C59.6128 73.853 58.9816 73.831 58.2443 73.7204C55.8386 73.3603 54.1421 72.7918 52.9435 71.9443C52.3075 71.4943 51.634 70.7466 51.3719 70.1987C51.0862 69.602 50.8513 68.6284 50.8508 68.0387L50.8502 67.5802H47.4939H44.1376L44.1904 68.5156C44.3566 71.4663 45.2959 73.7329 47.0749 75.4751C47.9963 76.3771 48.8304 76.9529 50.1881 77.624C52.3603 78.6974 54.9572 79.3801 57.7294 79.6068C60.1912 79.8078 65.1776 79.7529 67.0729 79.5036C72.9192 78.735 76.362 77.2353 78.3603 74.5877C78.8392 73.9528 79.4709 72.6768 79.7407 71.7993C79.9401 71.1508 79.9438 71.105 79.9418 69.2678C79.9399 67.6212 79.9209 67.3159 79.7824 66.7223C79.4477 65.2857 78.9112 64.3299 77.7776 63.1511C76.6267 61.9539 75.7515 61.4047 73.6942 60.5886C71.587 59.7524 70.3918 59.5353 62.5115 58.5583C56.7643 57.8459 55.8556 57.7021 54.5637 57.2992C53.1058 56.8449 52.4128 56.3751 52.0167 55.5726C51.5787 54.6849 51.6516 53.2034 52.1733 52.3935C52.84 51.3586 54.6553 50.5184 57.0054 50.1569C59.3203 49.8007 62.9719 49.801 65.4074 50.1575C67.2854 50.4322 68.8357 50.8775 69.9052 51.449C71.474 52.2872 72.442 53.6147 72.5989 55.1432C72.625 55.397 72.6715 55.6449 72.7021 55.6944C72.7455 55.7645 73.4726 55.7724 76.0034 55.7298L79.2491 55.6752L79.2477 55.042C79.244 53.3012 78.7055 51.2746 77.8709 49.8595C76.9895 48.3649 75.2267 46.8424 73.4678 46.0568C71.141 45.0174 68.2726 44.3731 64.7731 44.1035C64.2363 44.0622 62.6803 44.0122 61.3152 43.9921C59.1492 43.9604 58.6831 43.9743 57.6582 44.0995Z" fill="black"/>
</svg>
